<svg width="24" height="24" viewBox="0 0 24 24" fill="none" xmlns="http://www.w3.org/2000/svg">
<path fill-rule="evenodd" clip-rule="evenodd" d="M12.8699 20.1377L15.774 17.1882L21.2929 22.7071L22.7071 21.2929L2.70712 1.29291L1.29291 2.70712L6.71793 8.13214L3.85826 11.0351C1.38117 13.562 1.38117 17.6127 3.85656 20.1378C6.31031 22.6409 10.4559 22.6008 12.8699 20.1377ZM8.44997 14.3627L10.682 12.0962L11.8149 13.2291L9.55102 15.529C9.25338 15.8363 8.75081 15.8377 8.44997 15.5306C8.13293 15.2071 8.13293 14.6863 8.44997 14.3627ZM13.2292 14.6434L10.9821 16.9261C9.90742 18.036 8.10957 18.041 7.02136 16.9303C5.94246 15.8291 5.94246 14.0642 7.02316 12.9612L9.26774 10.682L8.13218 9.54639L5.28477 12.4369C3.57176 14.1843 3.57176 16.9903 5.28477 18.7377C6.94818 20.4346 9.80566 20.4069 11.4431 18.7362L14.3597 15.774L13.2292 14.6434ZM12.0604 7.84618L13.4746 9.26044L14.7682 7.94695L13.3432 6.54361L12.0604 7.84618ZM14.607 10.3928L16.5024 8.46735C17.5172 7.43172 17.5172 5.7685 16.5024 4.73287C15.5342 3.74478 13.821 3.76676 12.8721 4.73476L10.9253 6.71104L9.511 5.29679L11.4456 3.33295C13.169 1.57488 16.1703 1.53637 17.9309 3.33309C19.7077 5.14635 19.7077 8.05387 17.9293 9.86876L16.0213 11.807L14.607 10.3928ZM20.2921 9.74892L17.1521 12.9379L18.5664 14.3522L21.7172 11.1521L20.2921 9.74892Z" fill="white"/>
</svg>
