<svg width="24" height="24" viewBox="0 0 24 24" fill="none" xmlns="http://www.w3.org/2000/svg">
<path fill-rule="evenodd" clip-rule="evenodd" d="M1.70711 0.292908L0.292892 1.70712L3.58579 5.00001H3C1.89543 5.00001 0.999999 5.89544 0.999999 7.00001V17C0.999999 18.1046 1.89543 19 3 19H15C15.7021 19 16.3198 18.6382 16.6766 18.0908L22.2929 23.7071L23.7071 22.2929L1.70711 0.292908ZM15 16.4142L5.58579 7.00001H3V17H15V16.4142ZM17 8.38198L23 5.38198V18.3701L21 16.3701V8.61805L17 10.618V13.0008L15 11.0008V7.00001H10.9992L8.99921 5.00001H15C16.1046 5.00001 17 5.89544 17 7.00001V8.38198Z" fill="white"/>
</svg>
